PathFileType	4	(X/Y/Z)	C:/Users/beibeiliu/ov580/test_trc/User3\sequence.32_training_dense_left.trc
DataRate	CameraRate	NumFrames	NumMarkers	Units	OrigDataRate	OrigDataStartFrame	OrigNumFrames
120	120	19	19	mm	120	53	209
Frame#	Time	ThumbCMC			ThumbMCP			ThumbIP			ThumbTip			IndexMCP			IndexPIP			IndexTip			MiddleMCP			MiddlePIP			MiddleTip			RingMCP			RingPIP			RingTip			PinkyMCP			PinkyPIP			PinkyTip			BackHand1			BackHand2			BackHand3	
		X0	Y0	Z0	X1	Y1	Z1	X2	Y2	Z2	X3	Y3	Z3	X4	Y4	Z4	X5	Y5	Z5	X6	Y6	Z6	X7	Y7	Z7	X8	Y8	Z8	X9	Y9	Z9	X10	Y10	Z10	X11	Y11	Z11	X12	Y12	Z12	X13	Y13	Z13	X14	Y14	Z14	X15	Y15	Z15	X16	Y16	Z16	X17	Y17	Z17	X18	Y18	Z18	
52	0.433333	-147.934	-38.7902	12.4936	-130.891	-40.8403	-13.6099	-137.11	-36.1843	-51.1962	-163.194	-39.1525	-60.9112	-149.995	-17.5761	-59.2292	-151.211	-48.3575	-71.9864	-158.975	-62.5822	-41.5013	-169.394	-16.4877	-69.0856	-167.053	-46.0256	-78.2124	-172.898	-63.7184	-40.7892	-190.61	-2.27336	-58.8036	-185.174	-3.70353	-86.3116	-187.197	-11.2707	-114.007	-210.878	-3.78873	-44.4367	-209.994	6.24078	-66.5142	-212.658	17.7344	-87.492	-193.7	-2.88487	-6.11095	-203.17	-9.51415	25.375	-163.428	-6.81337	9.69357	
53	0.441667	-146.114	-40.8711	14.984	-131.908	-35.7358	-18.2753	-144.451	-32.9874	-49.4833	-169.998	-36.0187	-54.5876	-149.632	-15.9983	-58.5914	-149.947	-47.3371	-73.2204	-153.588	-65.2345	-48.024	-165.123	-16.8169	-67.4272	-168.681	-48.898	-76.5044	-175.516	-64.517	-41.3927	-184.636	-1.3922	-60.1642	-187.02	-3.26271	-84.5785	-185.22	-8.85253	-110.158	-207.084	-2.82601	-43.103	-207.575	6.46972	-64.745	-210.647	16.8677	-83.7958	-196.378	-0.979167	-1.20005	-200.065	-8.69095	24.1179	-161.506	-7.12348	10.2009	
54	0.45	-145.337	-38.4306	10.8943	-133.417	-37.4414	-16.9472	-146.992	-33.8341	-48.3136	-172.918	-36.4844	-52.9607	-150.101	-16.5247	-59.6415	-150.428	-49.9466	-73.1519	-153.51	-65.9591	-48.1051	-170.402	-15.6571	-66.5382	-168.61	-49.5693	-75.0699	-173.778	-66.218	-40.1099	-189.984	-2.13836	-59.525	-189.874	-3.96412	-87.7776	-186.238	-10.7093	-111.316	-208.144	-1.80176	-45.9043	-209.593	5.99659	-64.8962	-210.688	14.3709	-85.9213	-195.44	-0.454179	-3.6094	-201.993	-11.4163	24.1312	-162.436	-9.63158	10.7163	
55	0.458333	-147.819	-40.2523	10.9651	-133.188	-38.5964	-19.9598	-147.736	-36.1895	-46.4827	-173.617	-37.6657	-58.5119	-150.623	-16.2285	-58.5748	-151.129	-47.637	-74.0572	-154.85	-66.8709	-48.2662	-167.253	-16.226	-66.5241	-167.031	-49.7957	-77.6929	-175.562	-67.8761	-46.5017	-185.888	-2.14875	-57.8179	-187.67	-4.00468	-89.782	-186.329	-10.8477	-112.406	-209.373	-2.28153	-44.6526	-208.421	4.85218	-62.9314	-213.905	15.2816	-88.9484	-191.722	-2.65857	-3.83831	-196.874	-9.72339	22.1239	-163.165	-8.6074	13.3923	
56	0.466667	-145.093	-40.0285	9.9251	-131.274	-40.8198	-19.9553	-142.204	-38.3128	-50.5845	-167.024	-39.9651	-62.1947	-147.455	-18.2617	-61.3192	-147.605	-47.7006	-75.7166	-151.582	-68.792	-52.971	-166.7	-15.7592	-69.2086	-169.306	-47.9568	-80.6208	-176.663	-69.5047	-49.4344	-186.086	-2.87225	-57.9871	-187.166	-4.4143	-89.4454	-183.75	-11.7522	-115.072	-206.491	-5.47544	-41.9122	-208.236	3.9962	-61.8172	-213.498	14.4006	-86.6613	-194.125	-0.145646	-7.9471	-199.557	-8.73892	24.5311	-160.354	-10.1281	8.66009	
57	0.475	-147.133	-42.4693	13.3109	-133.179	-43.0113	-16.6105	-144.69	-39.7332	-48.3411	-164.43	-40.9321	-60.8726	-146.403	-20.5465	-62.6793	-149.511	-47.6086	-77.3566	-152.954	-70.7246	-55.0813	-167.195	-10.8591	-69.1692	-167.206	-35.9443	-88.0388	-174.021	-70.3869	-63.3032	-184.862	-2.12758	-61.9876	-184.269	-2.29453	-87.2706	-184.56	-9.09505	-110.829	-207.85	-5.85953	-42.8299	-211.364	4.94918	-64.9694	-214.119	14.1485	-83.7833	-194.157	-4.26632	-5.72052	-194.447	-9.22736	23.1425	-162.15	-9.78382	11.215	
58	0.483333	-142.955	-43.6193	13.8411	-133.821	-45.5477	-17.634	-139.768	-45.0699	-47.1493	-162.593	-44.1521	-64.7222	-147.373	-19.0775	-60.2406	-148.369	-45.2874	-79.749	-154.616	-74.368	-59.2976	-167.86	-5.17986	-65.4165	-165.546	-27.2643	-94.856	-169.989	-64.7021	-90.1268	-187.409	-2.37846	-57.1956	-187.079	-0.813247	-86.161	-185.794	-4.68722	-109.653	-209.041	-7.1672	-42.9147	-209.157	1.46034	-62.4872	-212.689	11.9298	-85.7182	-189.766	-4.4415	-7.49231	-197.186	-11.0247	23.8686	-162.816	-9.39619	9.41916	
59	0.491667	-142.814	-45.5331	14.0504	-133.352	-50.4194	-18.2122	-139.227	-52.1399	-48.0073	-161.765	-52.2855	-64.0775	-144.611	-21.5829	-64.065	-143.312	-49.7966	-79.9599	-153.054	-72.2394	-65.1835	-167.868	-2.01368	-67.4552	-161.887	-11.2611	-95.1848	-166.562	-42.0578	-115.753	-188.08	-2.13374	-59.5454	-184.968	0.915815	-85.9825	-186.754	0.306393	-114.28	-209.558	-12.1152	-42.1283	-211.587	0.393084	-66.6569	-212.41	7.15813	-83.9391	-196.834	-7.21859	-3.94442	-200.024	-11.2254	22.8202	-160.339	-10.8626	9.56749	
60	0.5	-143.021	-45.4096	13.4006	-134.243	-55.2257	-17.1655	-134.34	-61.5135	-51.5372	-152.985	-62.9286	-66.7647	-146.515	-17.4307	-58.219	-144.565	-43.9318	-79.9161	-155.557	-67.7427	-54.7818	-164.679	-1.86693	-64.8353	-162.227	-5.86464	-92.2533	-155.637	-21.9665	-125.957	-188.803	-3.11944	-57.8837	-187.915	1.43947	-84.3001	-183.783	2.36297	-108.467	-208.435	-13.3589	-43.0714	-212.693	-3.15625	-63.765	-214.642	8.13309	-81.6051	-194.993	-7.78595	-8.16219	-199.597	-14.2168	24.2114	-167.739	-12.1516	8.85186	
61	0.508333	-142.649	-45.4119	11.7021	-132.844	-57.635	-17.887	-131.75	-64.9428	-47.9947	-146.478	-67.8741	-72.5507	-149.311	-16.9599	-58.9318	-146.177	-45.7584	-78.1723	-150.848	-65.1471	-50.2947	-166.025	-2.34181	-66.4362	-162.366	-4.4537	-94.9393	-155.125	-10.7184	-124.867	-191.91	-4.32025	-56.8703	-186.114	2.39806	-82.5485	-186.438	5.28253	-109.797	-212.172	-12.1415	-44.3916	-211.537	-2.64479	-64.5812	-210.852	6.07121	-83.0887	-197.597	-9.06769	-8.69579	-200.605	-14.8859	20.7002	-163.168	-10.6226	11.9093	
62	0.516667	-143.597	-44.9525	12.8698	-133.706	-55.4405	-20.4457	-133.28	-62.7749	-45.9558	-145.544	-65.4916	-72.1904	-147.321	-17.6953	-61.5936	-144.035	-45.0617	-77.3729	-154.17	-62.675	-47.4523	-166.675	-1.92952	-64.213	-159.134	-2.80237	-94.4417	-157.35	-5.80404	-122.948	-190.461	-2.99283	-58.1934	-184.771	3.68918	-80.3389	-184.356	7.20152	-109.798	-210.593	-13.2524	-42.9502	-211.884	-3.07303	-63.7058	-212.778	8.64003	-83.5132	-195.848	-8.66907	-2.84596	-198.669	-15.0532	22.2392	-165.305	-10.9767	10.5313	
63	0.525	-145.106	-43.2615	11.9629	-133.566	-54.1426	-18.3443	-133.271	-60.2435	-46.8953	-145.216	-64.259	-71.0815	-146.932	-16.5003	-59.9392	-144.445	-45.8416	-75.6082	-151.681	-62.1844	-46.9048	-167.995	-0.329474	-65.8013	-160.556	-1.13597	-91.0781	-153.16	-5.28403	-122.458	-189.556	-3.0256	-54.5073	-184.43	4.65149	-81.6764	-185.012	7.89997	-107.433	-208.356	-13.8426	-40.496	-212.511	-2.95711	-62.3779	-208.796	8.79145	-82.7491	-194.821	-8.31257	-4.34308	-204.64	-12.9872	24.0442	-164.721	-7.74949	9.32309	
64	0.533333	-146.92	-41.1466	10.9525	-133.064	-55.4938	-15.622	-130.884	-60.4773	-50.96	-144.539	-64.6999	-69.5577	-146.366	-16.4603	-61.8057	-143.623	-46.7778	-75.044	-148.734	-62.3598	-49.3394	-164.511	0.560572	-64.3976	-160.059	-1.64722	-94.0397	-154.423	-6.00052	-123.625	-189.919	-0.555623	-57.5997	-184.751	4.64454	-80.8811	-180.713	7.14421	-108.197	-206.56	-12.1005	-42.5677	-210.097	-0.885479	-63.09	-213.68	8.87229	-81.8231	-196.534	-6.90588	-4.87834	-201.911	-13.5226	22.5778	-164.644	-9.90141	9.90626	
65	0.541667	-145.96	-42.3768	11.5569	-133.329	-53.7107	-20.1002	-131.274	-62.629	-44.758	-141.225	-65.4425	-69.9131	-144.311	-15.0093	-56.4902	-143.503	-45.5523	-74.7221	-152.01	-64.0225	-47.0618	-163.176	-0.657838	-64.4303	-160.964	-3.96071	-93.5485	-156.414	-9.88425	-120.347	-184.103	-2.40837	-57.8897	-182.065	2.48907	-83.5665	-181.613	4.37899	-108.979	-206.06	-10.4658	-45.3603	-212.177	-2.53346	-64.4125	-207.5	8.92552	-83.0178	-196.137	-8.51658	-3.14803	-203.882	-10.7204	20.5598	-167.439	-8.57574	11.4665	
66	0.55	-143.959	-43.9682	11.9644	-130.615	-55.5115	-16.2755	-128.833	-61.3813	-46.8825	-136.435	-65.8516	-71.9453	-142.777	-15.151	-54.9769	-140.543	-44.0112	-74.976	-149.819	-64.2633	-48.7442	-164.769	-0.809193	-64.7521	-156.388	-4.862	-89.051	-153.819	-20.1659	-122.027	-185.566	-2.77589	-57.9016	-184.982	1.86786	-83.1181	-179.969	0.351959	-106.751	-208.687	-12.6632	-41.4376	-208.839	-3.68983	-63.3576	-213.13	5.22647	-84.6624	-194.875	-7.47155	-1.87621	-202.615	-13.8597	21.2131	-165.82	-9.22648	13.1674	
67	0.558333	-142.985	-42.6979	12.092	-131.838	-53.6899	-16.198	-125.369	-58.0162	-47.8393	-137.394	-59.6754	-72.1506	-146.402	-13.1498	-55.3793	-140.937	-40.1314	-74.2183	-148.912	-62.8526	-50.6377	-166.639	-0.349983	-62.2056	-159.597	-8.31161	-92.6773	-157.94	-32.1416	-115.486	-186.649	-0.795378	-55.7961	-183.285	1.21669	-85.5939	-179.04	-5.89941	-110.582	-209.846	-8.94944	-44.4659	-211.89	-0.681624	-66.3353	-209.928	4.48422	-90.054	-196.945	-6.35089	-1.49258	-201.606	-15.0805	21.4239	-166.473	-9.88352	13.189	
68	0.566667	-144.31	-41.1578	12.7093	-131.657	-49.8437	-17.3269	-128.154	-51.5334	-44.9467	-134.821	-54.047	-72.8359	-146.237	-8.09094	-56.0734	-143.822	-37.6548	-73.0221	-153.935	-56.0113	-50.4084	-169.003	5.80809	-60.9085	-163.796	-6.19947	-89.4723	-159.743	-40.8469	-101.43	-187.834	4.55876	-51.2864	-185.947	5.92157	-82.6982	-184.922	-8.80601	-106.767	-214.462	-5.69157	-40.5765	-213.359	4.77912	-63.7473	-210.337	6.87224	-87.1229	-197.648	-4.20047	-3.07762	-206.384	-13.1601	24.1734	-169.806	-8.49636	13.1979	
69	0.575	-148.151	-39.3502	12.8501	-133.733	-45.3203	-19.836	-127.429	-47.6242	-48.502	-136.927	-50.5032	-73.0686	-143.505	-5.07311	-54.8951	-144.564	-34.1759	-70.4935	-154.332	-50.7521	-46.4376	-169.481	6.77807	-63.5547	-165.146	-8.97733	-88.5893	-164.151	-49.4477	-85.7674	-192.081	7.079	-53.1665	-189.702	7.57128	-81.7935	-182.426	-12.8825	-104.134	-214.698	-1.72541	-39.9685	-214.23	7.8756	-62.5368	-215.115	8.35031	-85.8013	-200.62	-3.2253	1.50481	-207.498	-15.4319	27.6839	-170.16	-7.39349	15.2958	
70	0.583333	-144.321	-38.6179	12.2215	-136.012	-44.4617	-18.3962	-129.162	-47.6508	-49.6503	-143.022	-47.991	-73.7354	-144.441	-4.61749	-55.5293	-141.436	-31.8291	-70.8286	-156.092	-48.2145	-40.114	-166.713	5.29854	-60.7368	-165.389	-14.373	-86.5392	-163.342	-51.0364	-73.0796	-192.483	7.87682	-52.749	-186.244	3.88092	-85.7113	-182.882	-21.5698	-105.286	-215.385	-0.0186835	-40.7467	-219.605	7.2519	-61.6276	-212.795	7.73868	-89.5919	-200.702	-1.32522	-1.27129	-201.625	-14.3184	26.9251	-169.041	-6.86347	15.793	
